<mxfile host="app.diagrams.net" modified="2024-03-12T07:36:52.727Z" agent="Mozilla/5.0 (Macintosh; Intel Mac OS X 10_15_7) AppleWebKit/537.36 (KHTML, like Gecko) Chrome/122.0.0.0 Safari/537.36" etag="SbLTAy8EG_xg529jHJ9_" version="24.0.5" type="github">
  <diagram name="第 1 页" id="Uc8pmaHipOv8BrhtGk-N">
    <mxGraphModel dx="1026" dy="566" grid="1" gridSize="10" guides="1" tooltips="1" connect="1" arrows="1" fold="1" page="1" pageScale="1" pageWidth="827" pageHeight="1169" math="0" shadow="0">
      <root>
        <mxCell id="0" />
        <mxCell id="1" parent="0" />
        <mxCell id="1E-S2F3XiOlgd8H4mSnj-1" value="" style="rounded=1;whiteSpace=wrap;html=1;" vertex="1" parent="1">
          <mxGeometry x="120" y="120" width="260" height="250" as="geometry" />
        </mxCell>
        <mxCell id="1E-S2F3XiOlgd8H4mSnj-2" value="程序计数器&lt;div style=&quot;font-size: 16px;&quot;&gt;本地方法栈&lt;/div&gt;&lt;div style=&quot;font-size: 16px;&quot;&gt;虚拟机栈&lt;/div&gt;" style="rounded=1;whiteSpace=wrap;html=1;fontSize=16;" vertex="1" parent="1">
          <mxGeometry x="190" y="150" width="120" height="60" as="geometry" />
        </mxCell>
        <mxCell id="1E-S2F3XiOlgd8H4mSnj-3" value="堆&lt;div style=&quot;font-size: 16px;&quot;&gt;方法区&lt;/div&gt;" style="rounded=1;whiteSpace=wrap;html=1;fontSize=16;" vertex="1" parent="1">
          <mxGeometry x="190" y="260" width="120" height="60" as="geometry" />
        </mxCell>
      </root>
    </mxGraphModel>
  </diagram>
</mxfile>
